<?xml version="1.0" encoding="utf-8"?>
<svg xmlns="http://www.w3.org/2000/svg" width="16" height="16" viewBox="0 0 16 16" x="0" y="0">
  <!-- ExpeditionLogo_16x -->
  <path id="path2" fill="#1c50a2" stroke-linejoin="round" d="M 11.678001,15.963255 C 6.5934229,15.597933 3.0299018,16.899758 1.9951662,14.528264 1.1395588,12.568571 2.9258218,2.839673 9.6085676,0 15.839997,5.4543151 14.127738,8.447346 11.678001,15.963255 Z"  />
  <path id="path4" fill="#ffffff" stroke-linejoin="round" d="M 7.4503322,13.73522 C 6.6187453,13.549544 3.6676504,13.890661 3.1662922,12.676648 2.7519985,11.674607 3.5335598,8.0034277 7.8366096,4.7278617 11.741368,8.0034277 7.715522,12.582805 7.4503322,13.73522 Z" />
  <path id="path6" fill="#ffffff" stroke-linejoin="round" d="M 8.7736757,1.2084237 8.1572369,4.5335087 C 12.07002,7.6264381 8.3293554,12.870848 8.3293554,12.870848 L 10.867186,12.213865 C 13.277841,3.0803687 8.7736757,1.2084237 8.7736757,1.2084237 Z" />
  <path id="path8" fill="none" stroke-linejoin="round" stroke="#ffffff" d="m 11.856682,13.285142 c -1.076826,-0.236096 -6.5566726,1.419873 -7.7615259,1.422848 -0.156108,0 -0.3872745,-0.05846 -0.3872745,-0.336051 0.044027,-0.593295 0.1411027,-0.636719 0.1411027,-0.636719"  />
</svg>
